<svg width="332" height="284" viewBox="0 0 332 284" fill="none" xmlns="http://www.w3.org/2000/svg">
<g clip-path="url(#clip0_221_566)" filter="url(#filter0_d_221_566)">
<path d="M161.041 137.426C159.852 142.056 161.443 146.4 164.593 147.129C167.744 147.858 171.261 144.696 172.45 140.065C172.952 138.221 172.974 136.288 172.516 134.428L177.289 114.751L167.367 112.785L163.715 132.392C162.406 133.843 161.489 135.569 161.041 137.426Z" fill="#FDADB0"/>
<path d="M202.636 249.943L202.025 262.84L202.637 266.409L200.495 270.573L183.661 272.357L182.743 264.625L191.619 260.164L191.877 252.876L202.636 249.943Z" fill="#FDADB0"/>
<path d="M184.885 269.383L185.803 270.573L203.433 265.636C203.433 265.636 202.637 273.249 202.637 274.736C202.637 276.223 173.561 276.223 169.185 275.628C164.81 275.034 166.215 271.167 166.215 271.167L184.36 262.822L184.885 269.383Z" fill="#2F2E43"/>
<path d="M246.494 240.45L250.163 252.858L251.918 256.049L251.26 260.66L235.899 267.585L232.482 260.545L239.422 253.559L235.069 242.59L246.494 240.45Z" fill="#FDADB0"/>
<path d="M236.079 264.387L237.341 265.228L252.417 255.07C252.417 255.07 254.171 262.53 254.661 263.938C255.151 265.347 227.603 274.389 223.262 275.186C218.921 275.983 218.979 271.883 218.979 271.883L233.42 258.334L236.079 264.387Z" fill="#2F2E43"/>
<path d="M201.45 37.021L200.807 47.164L220.299 48.1248L214.263 34.7612L201.45 37.021Z" fill="#FDADB0"/>
<path d="M200.31 45.6465C205.535 47.9108 213.891 47.2913 223.362 45.6465L224.842 109.399C224.842 109.399 195.217 115.186 185.031 104.508L190.392 52.4181L200.31 45.6465Z" fill="#E0E1E2"/>
<path d="M188.248 106.071L230.071 110.087L250.71 246.257H234.895L207.815 152.951L205.671 258.693H191.196L178.866 129.251L188.248 106.071Z" fill="#2F2E43"/>
<path d="M217.415 41.7402L231.468 49.8201C236.791 52.881 239.3 59.0598 237.562 64.8278L226.702 100.87C226.702 100.87 244.387 130.391 238.64 132.995C225.726 138.848 206.457 137.423 206.457 137.423L210.763 66.7432L217.415 41.7402Z" fill="#3F3D58"/>
<path d="M200.92 45.3789L185.031 51.3768L181.278 95.9134L170.769 131.792C188.569 138.105 186.907 135.163 186.907 135.163L189.856 73.2544L200.92 45.3789Z" fill="#3F3D58"/>
<path d="M177.709 131.033L177.763 130.789L194.005 57.7982C194.459 55.7588 193.878 53.7145 192.413 52.1892C190.947 50.6637 188.888 49.9611 186.762 50.2614C184.141 50.6317 182.042 52.4871 181.416 54.9884L163.576 126.24L177.709 131.033Z" fill="#3F3D58"/>
<path d="M209.908 39.7158C201.174 39.7158 194.093 32.8361 194.093 24.3496C194.093 15.8631 201.174 8.9834 209.908 8.9834C218.642 8.9834 225.722 15.8631 225.722 24.3496C225.722 32.8361 218.642 39.7158 209.908 39.7158Z" fill="#FDADB0"/>
<path d="M202.384 4.44128C198.901 5.63087 196.907 6.31158 195.081 8.02068C191.997 10.9076 191.488 14.7656 191.016 18.3503C190.646 21.1546 190.167 24.7805 191.857 28.923C192.434 30.3367 195.232 36.6353 200.587 37.4313C201.638 37.5876 204.108 37.6287 203.396 37.1181C196.809 32.3933 193.998 29.5409 194.229 22.2592C194.372 17.7346 201.487 12.8495 205.712 11.9714C207.492 11.6015 209.862 11.9394 211.561 13.2947C215.112 16.1273 214.96 27.8403 218.705 30.2888C220.244 31.2958 219.218 24.2076 220.303 25.357C222.444 27.6251 221.071 31.0985 220.686 32.4212C218.861 38.6956 215.421 39.3097 213.639 44.6676C211.714 50.4523 214.136 55.8985 214.71 57.1899C215.71 59.4366 217.424 63.2923 221.341 65.142C226.314 67.4899 230.233 64.4325 232.545 67.0536C233.837 68.5189 233.138 70.0708 235.472 74.6284C236.234 76.1162 236.615 76.8602 236.952 76.8338C238.548 76.7089 241.132 64.2957 236.953 52.7353C235.199 47.8838 233.481 43.1306 228.875 39.4137C226.44 37.4487 224.397 36.7416 223.816 34.4468C222.986 31.1685 226.434 29.7692 227.125 24.5966C227.598 21.059 227.93 15.9995 226.644 12.7567C225.43 9.6943 224.377 7.03595 221.618 4.62566C220.956 4.04674 215.609 0.111563 209.939 0.000558834C207.328 -0.0504706 205.41 3.40774 202.384 4.44128Z" fill="#2F2E43"/>
<path d="M168.968 138.672C147.606 138.672 130.288 121.845 130.288 101.089C130.288 80.332 147.606 63.5054 168.968 63.5054C190.33 63.5054 207.647 80.332 207.647 101.089C207.647 121.845 190.33 138.672 168.968 138.672Z" fill="#6C63FF"/>
<path d="M178.755 125.609C176.407 117.379 174.059 109.149 171.711 100.919C171.211 99.1672 170.824 97.2212 169.68 95.7343C168.795 94.5847 167.404 93.8326 165.931 94.3053C162.421 95.4325 162.477 100.355 162.54 103.227C162.634 107.562 163.641 111.887 165.495 115.834C165.749 116.375 165.654 117.02 165.088 117.342C164.6 117.619 163.792 117.49 163.536 116.946C161.68 112.995 160.576 108.765 160.319 104.426C160.098 100.681 160.081 95.743 163.422 93.1908C165.054 91.9434 167.138 91.5729 169.052 92.4351C170.943 93.2871 172.098 95.0511 172.825 96.8776C173.632 98.9086 174.113 101.086 174.711 103.182L176.638 109.935C178.073 114.964 179.508 119.994 180.943 125.023C181.333 126.392 179.145 126.977 178.755 125.609Z" fill="white"/>
<path d="M168.695 114.147C167.242 108.848 166.499 103.368 166.493 97.8846C166.492 96.466 168.76 96.4638 168.762 97.8846C168.768 103.183 169.479 108.442 170.882 113.561C171.259 114.933 169.071 115.519 168.695 114.147Z" fill="white"/>
<path d="M192.019 114.083C190.498 106.96 188.853 99.8135 186.742 92.8301C185.031 87.1676 182.08 80.7507 175.853 78.6976C172.76 77.678 169.408 77.8422 166.242 78.4339C163.103 79.0205 159.924 79.8937 157.031 81.2293C154.292 82.4936 151.759 84.2361 149.956 86.6366C148.176 89.0062 147.068 91.7563 146.47 94.62C145.084 101.266 146.716 108.055 148.544 114.46C148.787 115.312 149.036 116.163 149.285 117.014C149.685 118.381 147.496 118.965 147.097 117.6C145.077 110.695 142.978 103.481 143.92 96.2331C144.327 93.0987 145.232 90.0196 146.844 87.2609C148.497 84.434 150.881 82.1233 153.739 80.4437C156.622 78.7498 159.867 77.6715 163.116 76.8622C166.567 76.0026 170.159 75.4735 173.714 75.9539C177.066 76.4068 180.086 77.951 182.46 80.2826C184.891 82.6712 186.536 85.6558 187.749 88.7751C189.087 92.2153 189.961 95.8293 190.882 99.3907C191.855 103.155 192.763 106.935 193.605 110.729C193.809 111.651 194.01 112.574 194.207 113.497C194.331 114.08 194.032 114.688 193.414 114.853C192.852 115.003 192.144 114.669 192.019 114.083Z" fill="white"/>
<path d="M180.326 91.2952C178.557 86.0787 172.859 82.8493 167.343 83.2071C161.229 83.6038 155.929 87.9426 153.783 93.4024C152.507 96.6466 152.133 100.217 152.669 103.65C152.761 104.238 152.517 104.835 151.877 105.006C151.341 105.149 150.574 104.828 150.481 104.236C149.41 97.3747 151.379 89.8983 156.937 85.2585C159.543 83.0828 162.734 81.5769 166.151 81.126C169.437 80.6924 172.749 81.2833 175.658 82.8375C178.849 84.5424 181.37 87.337 182.514 90.7091C182.972 92.0596 180.781 92.6385 180.326 91.2952Z" fill="white"/>
<path d="M185.153 101.405C185.64 107.06 187.107 112.652 189.481 117.839C189.729 118.382 189.643 119.023 189.074 119.347C188.59 119.622 187.772 119.498 187.522 118.952C184.974 113.385 183.408 107.478 182.884 101.405C182.833 100.811 183.442 100.303 184.019 100.303C184.675 100.303 185.102 100.81 185.153 101.405Z" fill="white"/>
<path d="M157.748 107.718C158.235 113.373 159.702 118.965 162.075 124.151C162.324 124.695 162.238 125.336 161.668 125.659C161.185 125.934 160.366 125.811 160.116 125.264C157.569 119.697 156.002 113.79 155.479 107.718C155.428 107.124 156.037 106.616 156.614 106.616C157.27 106.616 157.697 107.122 157.748 107.718Z" fill="white"/>
<path d="M179.445 103.33C177.986 97.7094 175.569 92.3824 172.29 87.5399C171.485 86.3513 173.448 85.2458 174.249 86.4272C177.626 91.4151 180.13 96.9549 181.633 102.744C181.99 104.12 179.802 104.707 179.445 103.33Z" fill="white"/>
<path d="M201.616 93.424C196.732 92.9247 192.527 95.0602 192.222 98.1933C191.918 101.326 195.631 104.27 200.516 104.769C202.465 104.995 204.438 104.748 206.27 104.047L226.988 105.899L227.61 96.0794L207.119 95.2962C205.458 94.2384 203.571 93.5964 201.616 93.424Z" fill="#FDADB0"/>
<path d="M226.859 50.2858C231.874 49.5994 236.579 52.8036 237.622 57.6194C241.258 74.4209 247.784 110.21 237.534 110.808C224.132 111.589 211.266 108.464 211.266 108.464L214.483 90.4928L224.936 89.451L218.787 61.5041C217.62 56.1977 221.329 51.0426 226.859 50.2858Z" fill="#3F3D58"/>
</g>
<defs>
<filter id="filter0_d_221_566" x="-4" y="0" width="340" height="284" filterUnits="userSpaceOnUse" color-interpolation-filters="sRGB">
<feFlood flood-opacity="0" result="BackgroundImageFix"/>
<feColorMatrix in="SourceAlpha" type="matrix" values="0 0 0 0 0 0 0 0 0 0 0 0 0 0 0 0 0 0 127 0" result="hardAlpha"/>
<feOffset dy="4"/>
<feGaussianBlur stdDeviation="2"/>
<feComposite in2="hardAlpha" operator="out"/>
<feColorMatrix type="matrix" values="0 0 0 0 0 0 0 0 0 0 0 0 0 0 0 0 0 0 0.25 0"/>
<feBlend mode="normal" in2="BackgroundImageFix" result="effect1_dropShadow_221_566"/>
<feBlend mode="normal" in="SourceGraphic" in2="effect1_dropShadow_221_566" result="shape"/>
</filter>
<clipPath id="clip0_221_566">
<rect width="332" height="276" fill="white" transform="matrix(-1 0 0 1 332 0)"/>
</clipPath>
</defs>
</svg>
